{"accessors":[{"bufferView":2,"componentType":5126,"count":102,"max":[0.15477819740772247,-0.06212982162833214,1.6278129816055298],"min":[-0.049697328358888626,-0.1518739014863968,1.0989969968795776],"type":"VEC3"},{"bufferView":2,"byteOffset":1224,"componentType":5126,"count":102,"max":[0.8051102161407471,-0.4574120342731476,0.6427309513092041],"min":[-0.8801950812339783,-0.9987471103668213,-0.8187054991722107],"type":"VEC3"},{"bufferView":1,"componentType":5126,"count":102,"max":[0.9415280222892761,0.9844059944152832],"min":[0.004883000161498785,-0.002289057010784745],"type":"VEC2"},{"bufferView":0,"componentType":5125,"count":258,"type":"SCALAR"},{"bufferView":2,"byteOffset":2448,"componentType":5126,"count":58,"max":[0.17097200453281403,0.14217300713062286,1.722396969795227],"min":[-0.08743520081043243,-0.1593863070011139,1.384063959121704],"type":"VEC3"},{"bufferView":2,"byteOffset":3144,"componentType":5126,"count":58,"max":[0.9828610420227051,0.7808279991149902,0.23458050191402435],"min":[-0.9967355728149414,-0.9351546764373779,-0.535384476184845],"type":"VEC3"},{"bufferView":1,"byteOffset":816,"componentType":5126,"count":58,"max":[0.9876400232315063,0.9501339793205261],"min":[0.017364999279379845,0.13095100224018097],"type":"VEC2"},{"bufferView":0,"byteOffset":1032,"componentType":5125,"count":123,"type":"SCALAR"},{"bufferView":2,"byteOffset":3840,"componentType":5126,"count":2284,"max":[0.7253950238227844,0.27719229459762573,1.8800380229949951],"min":[-0.6982728838920593,-0.30370038747787476,-0.003285242011770606],"type":"VEC3"},{"bufferView":2,"byteOffset":31248,"componentType":5126,"count":2284,"max":[0.9997100234031677,0.999916672706604,0.9986439943313599],"min":[-0.9996960759162903,-0.9997692704200745,-0.9992552995681763],"type":"VEC3"},{"bufferView":1,"byteOffset":1280,"componentType":5126,"count":2284,"max":[0.9921879768371582,0.9964600205421448],"min":[0.00015300000086426735,0.003418027888983488],"type":"VEC2"},{"bufferView":0,"byteOffset":1524,"componentType":5125,"count":4596,"type":"SCALAR"},{"bufferView":2,"byteOffset":58656,"componentType":5126,"count":348,"max":[0.6508573293685913,0.11586479842662811,1.2783010005950928],"min":[-0.5419837236404419,-0.13239790499210358,0.8348265290260315],"type":"VEC3"},{"bufferView":2,"byteOffset":62832,"componentType":5126,"count":348,"max":[0.9750608205795288,0.9755556583404541,0.9673770070075989],"min":[-0.9531005024909973,-0.9992973208427429,-0.9531388878822327],"type":"VEC3"},{"bufferView":1,"byteOffset":19552,"componentType":5126,"count":348,"max":[13.064940452575684,11.160160064697266],"min":[-0.4580079913139343,-1.625488042831421],"type":"VEC2"},{"bufferView":0,"byteOffset":19908,"componentType":5125,"count":633,"type":"SCALAR"},{"bufferView":2,"byteOffset":67008,"componentType":5126,"count":383,"max":[0.15792959928512573,0.11945849657058716,1.2606920003890991],"min":[-0.11159619688987732,-0.13239790499210358,0.954453706741333],"type":"VEC3"},{"bufferView":2,"byteOffset":71604,"componentType":5126,"count":383,"max":[0.9927645921707153,0.99701327085495,0.9844954013824463],"min":[-0.9956406950950623,-0.9569767713546753,-0.6698921322822571],"type":"VEC3"},{"bufferView":1,"byteOffset":22336,"componentType":5126,"count":383,"max":[13.998539924621582,6.311522960662842],"min":[0.048340000212192535,-4.05517578125],"type":"VEC2"},{"bufferView":0,"byteOffset":22440,"componentType":5125,"count":798,"type":"SCALAR"}],"asset":{"extras":{"author":"Jamessmartguy (https://sketchfab.com/skybaca1985)","license":"CC-BY-4.0 (http://creativecommons.org/licenses/by/4.0/)","source":"https://sketchfab.com/3d-models/sheriff-woody-wall-e-wii-t-pose-7982b0060fe94e8eb62bf7effa40d9d8","title":"Sheriff Woody WALL-E Wii T Pose"},"generator":"Sketchfab-16.73.0","version":"2.0"},"bufferViews":[{"buffer":0,"byteLength":25632,"name":"floatBufferViews","target":34963},{"buffer":0,"byteLength":25400,"byteOffset":25632,"byteStride":8,"name":"floatBufferViews","target":34962},{"buffer":0,"byteLength":76200,"byteOffset":51032,"byteStride":12,"name":"floatBufferViews","target":34962}],"buffers":[{"byteLength":127232,"uri":"data:application/octet-stream;base64,"}],"extensionsRequired":["KHR_materials_pbrSpecularGlossiness"],"extensionsUsed":["KHR_materials_pbrSpecularGlossiness"],"images":[{"uri":"data:application/octet-stream;base64,"},{"uri":"data:application/octet-stream;base64,"},{"uri":"data:application/octet-stream;base64,"},{"uri":"data:application/octet-stream;base64,"},{"uri":"data:application/octet-stream;base64,"}],"materials":[{"doubleSided":true,"extensions":{"KHR_materials_pbrSpecularGlossiness":{"diffuseFactor":[1,1,1,1],"diffuseTexture":{"index":0},"glossinessFactor":0.4,"specularFactor":[0,0,0]}},"name":"Material"},{"doubleSided":true,"extensions":{"KHR_materials_pbrSpecularGlossiness":{"diffuseFactor":[1,1,1,1],"diffuseTexture":{"index":1},"glossinessFactor":0.4,"specularFactor":[0,0,0]}},"name":"Material_1"},{"doubleSided":true,"extensions":{"KHR_materials_pbrSpecularGlossiness":{"diffuseFactor":[1,1,1,1],"diffuseTexture":{"index":2},"glossinessFactor":0.4,"specularFactor":[0,0,0]}},"name":"Material_2"},{"doubleSided":true,"extensions":{"KHR_materials_pbrSpecularGlossiness":{"diffuseFactor":[1,1,1,1],"diffuseTexture":{"index":3},"glossinessFactor":0.4,"specularFactor":[0,0,0]}},"name":"Material_3"},{"doubleSided":true,"extensions":{"KHR_materials_pbrSpecularGlossiness":{"diffuseFactor":[1,1,1,1],"diffuseTexture":{"index":4},"glossinessFactor":0.4,"specularFactor":[0,0,0]}},"name":"Material_4"}],"meshes":[{"name":"Object_0","primitives":[{"attributes":{"NORMAL":1,"POSITION":0,"TEXCOORD_0":2},"indices":3,"material":0,"mode":4}]},{"name":"Object_1","primitives":[{"attributes":{"NORMAL":5,"POSITION":4,"TEXCOORD_0":6},"indices":7,"material":1,"mode":4}]},{"name":"Object_2","primitives":[{"attributes":{"NORMAL":9,"POSITION":8,"TEXCOORD_0":10},"indices":11,"material":2,"mode":4}]},{"name":"Object_3","primitives":[{"attributes":{"NORMAL":13,"POSITION":12,"TEXCOORD_0":14},"indices":15,"material":3,"mode":4}]},{"name":"Object_4","primitives":[{"attributes":{"NORMAL":17,"POSITION":16,"TEXCOORD_0":18},"indices":19,"material":4,"mode":4}]}],"nodes":[{"children":[1],"matrix":[1,0,0,0,0,2.220446049250313e-16,-1,0,0,1,2.220446049250313e-16,0,0,0,0,1],"name":"Sketchfab_model"},{"children":[2,3,4,5,6],"name":"New Project.obj.cleaner.materialmerger.gles"},{"mesh":0,"name":"Object_2"},{"mesh":1,"name":"Object_3"},{"mesh":2,"name":"Object_4"},{"mesh":3,"name":"Object_5"},{"mesh":4,"name":"Object_6"}],"samplers":[{"magFilter":9729,"minFilter":9987,"wrapS":10497,"wrapT":10497}],"scene":0,"scenes":[{"name":"Sketchfab_Scene","nodes":[0]}],"textures":[{"sampler":0,"source":0},{"sampler":0,"source":1},{"sampler":0,"source":2},{"sampler":0,"source":3},{"sampler":0,"source":4}]}